<svg width="64" height="64" viewBox="0 0 64 64" fill="none" xmlns="http://www.w3.org/2000/svg">
<path d="M32 23H11C9.4087 23 7.88258 23.6321 6.75736 24.7574C5.63214 25.8826 5 27.4087 5 29V41C5 42.5913 5.63214 44.1174 6.75736 45.2426C7.88258 46.3679 9.4087 47 11 47H20" stroke="url(#paint0_linear)" stroke-width="5" stroke-linecap="round" stroke-linejoin="round"/>
<path d="M32 41H53C54.5913 41 56.1174 40.3679 57.2426 39.2426C58.3679 38.1174 59 36.5913 59 35V23C59 21.4087 58.3679 19.8826 57.2426 18.7574C56.1174 17.6321 54.5913 17 53 17H44" stroke="url(#paint1_linear)" stroke-width="5" stroke-linecap="round" stroke-linejoin="round"/>
<path d="M20 23V11C20 9.4087 20.6321 7.88258 21.7574 6.75736C22.8826 5.63214 24.4087 5 26 5H38C39.5913 5 41.1174 5.63214 42.2426 6.75736C43.3679 7.88258 44 9.4087 44 11V26C44 27.5913 43.3679 29.1174 42.2426 30.2426C41.1174 31.3679 39.5913 32 38 32H26C24.4087 32 22.8826 32.6321 21.7574 33.7574C20.6321 34.8826 20 36.4087 20 38V53C20 54.5913 20.6321 56.1174 21.7574 57.2426C22.8826 58.3679 24.4087 59 26 59H38C39.5913 59 41.1174 58.3679 42.2426 57.2426C43.3679 56.1174 44 54.5913 44 53V41" stroke="url(#paint2_linear)" stroke-width="5" stroke-linecap="round" stroke-linejoin="round"/>
<path d="M29 14V14.03" stroke="url(#paint3_linear)" stroke-width="6" stroke-linecap="round" stroke-linejoin="round"/>
<path d="M35 50V50.03" stroke="url(#paint4_linear)" stroke-width="6" stroke-linecap="round" stroke-linejoin="round"/>
<defs>
<linearGradient id="paint0_linear" x1="18.5" y1="47" x2="18.5" y2="23" gradientUnits="userSpaceOnUse">
<stop stop-color="#FD5900"/>
<stop offset="1" stop-color="#FFDE00"/>
</linearGradient>
<linearGradient id="paint1_linear" x1="45.5" y1="41" x2="45.5" y2="17" gradientUnits="userSpaceOnUse">
<stop stop-color="#FD5900"/>
<stop offset="1" stop-color="#FFDE00"/>
</linearGradient>
<linearGradient id="paint2_linear" x1="32" y1="59" x2="32" y2="5" gradientUnits="userSpaceOnUse">
<stop stop-color="#5570FF"/>
<stop offset="1" stop-color="#4DD3FF"/>
</linearGradient>
<linearGradient id="paint3_linear" x1="29.1666" y1="15.6875" x2="29.793" y2="12.9034" gradientUnits="userSpaceOnUse">
<stop stop-color="#5570FF"/>
<stop offset="1" stop-color="#4DD3FF"/>
</linearGradient>
<linearGradient id="paint4_linear" x1="35.3334" y1="52.25" x2="35.3334" y2="48.3125" gradientUnits="userSpaceOnUse">
<stop stop-color="#FD5900"/>
<stop offset="1" stop-color="#FFDE00"/>
</linearGradient>
</defs>
</svg>
