<?xml version="1.0" encoding="UTF-8" standalone="no"?>
<!-- Created with Inkscape (http://www.inkscape.org/) -->

<svg
   width="64"
   height="64"
   viewBox="0 0 16.933333 16.933333"
   version="1.1"
   id="svg5"
   inkscape:version="1.1.1 (3bf5ae0d25, 2021-09-20, custom)"
   sodipodi:docname="android-studio.svg"
   xmlns:inkscape="http://www.inkscape.org/namespaces/inkscape"
   xmlns:sodipodi="http://sodipodi.sourceforge.net/DTD/sodipodi-0.dtd"
   xmlns="http://www.w3.org/2000/svg"
   xmlns:svg="http://www.w3.org/2000/svg">
  <sodipodi:namedview
     id="namedview7"
     pagecolor="#ffffff"
     bordercolor="#666666"
     borderopacity="1.0"
     inkscape:pageshadow="2"
     inkscape:pageopacity="0.0"
     inkscape:pagecheckerboard="0"
     inkscape:document-units="px"
     showgrid="true"
     units="px"
     height="48px"
     inkscape:zoom="7.9999996"
     inkscape:cx="29.625001"
     inkscape:cy="44.437502"
     inkscape:window-width="1920"
     inkscape:window-height="1019"
     inkscape:window-x="0"
     inkscape:window-y="0"
     inkscape:window-maximized="1"
     inkscape:current-layer="svg5"
     inkscape:lockguides="true" />
  <defs
     id="defs2" />
  <circle
     style="fill:#ffffff;stroke-width:0.529167;stroke-linecap:round;stroke-linejoin:round;stroke-dasharray:6.35, 0.529167"
     id="path856"
     cx="8.4666662"
     cy="8.4666662"
     r="7.4083333" />
  <path
     id="path4"
     d="M 7.3462463,4.709952 H 5.0671347 A 0.83612374,0.83612374 0 0 0 4.2337081,5.5460758 0.80915201,0.80915201 0 0 0 5.0185856,6.3795023 h 2.3438437 z"
     style="fill:#073042;stroke-width:0.269718"
     inkscape:connector-curvature="0" />
  <path
     id="path6"
     d="M 12.511334,12.140665 H 5.0644376 A 0.83612374,0.83612374 0 0 1 4.2337081,11.307238 V 5.5406815 a 0.83612374,0.83612374 0 0 0 0.8307295,0.841518 h 6.2331674 c 0,0 1.213729,-0.1051893 1.213729,0.8091521 z"
     style="fill:#4285f4;stroke-width:0.269718"
     inkscape:connector-curvature="0" />
  <path
     id="path10"
     d="M 9.0373739,9.1872598 A 0.74981419,0.74981419 0 0 0 8.6085234,7.8386732 h 0.024275 a 0.53943467,0.53943467 0 0 1 0.1321616,0 V 7.3747593 A 0.15104171,0.15104171 0 0 0 8.6948329,7.2425979 0.14564736,0.14564736 0 0 0 8.4763618,7.3747593 V 7.8467647 A 0.74981419,0.74981419 0 0 0 7.8506177,8.707163 0.74172267,0.74172267 0 0 0 8.1473067,9.1953514 L 6.7744454,12.129876 H 7.669907 L 8.3037427,10.78129 a 0.32635798,0.32635798 0 0 1 0.5906811,0 l 0.6527159,1.348586 H 10.45339 Z M 8.5788545,9.0550984 A 0.46391382,0.46391382 0 0 1 8.1176379,8.5884873 0.46391382,0.46391382 0 0 1 8.9025152,8.2594322 0.46391382,0.46391382 0 0 1 8.5788545,9.0550984 Z"
     style="fill:#3870b2;stroke-width:0.269718"
     inkscape:connector-curvature="0" />
  <path
     id="path12"
     d="M 6.8472692,5.1199224 H 10.04342 V 5.705209 H 6.8472692 Z"
     style="fill:#ffffff;stroke-width:0.269718"
     inkscape:connector-curvature="0" />
  <path
     id="path14"
     d="M 8.3307145,8.1299679 A 0.46121664,0.46121664 0 1 1 7.8641035,8.5884873 0.47200534,0.47200534 0 0 1 8.0016593,8.2648266 0.46391382,0.46391382 0 0 1 8.3307145,8.1299679 Z M 8.5141223,7.8602505 V 7.3747593 A 0.15104171,0.15104171 0 0 0 8.4439958,7.2425979 0.14564736,0.14564736 0 0 0 8.2255247,7.3747593 V 7.8467647 A 0.74981419,0.74981419 0 0 0 7.5997806,8.707163 0.74172267,0.74172267 0 0 0 7.8964695,9.1953514 L 6.1729758,12.903965 a 0.40457601,0.40457601 0 0 0 0.029669,0.412668 0.40727318,0.40727318 0 0 0 0.7093566,-0.06743 l 1.1489953,-2.467912 a 0.32635798,0.32635798 0 0 1 0.590681,0 l 1.178665,2.454427 A 0.40772856,0.40772856 0 0 0 10.563974,12.879691 L 8.789234,9.1872598 A 0.75790572,0.75790572 0 0 0 8.5195166,7.8629477"
     style="fill:#073042;stroke-width:0.269718"
     inkscape:connector-curvature="0" />
  <path
     id="path16"
     d="M 9.5714143,5.6350825 A 0.21577387,0.21577387 0 0 1 9.3502461,5.424703 a 0.20768235,0.20768235 0 0 1 0.064732,-0.1591332 0.21847105,0.21847105 0 0 1 0.3074777,0 0.22656257,0.22656257 0 0 1 0.064732,0.1510417 0.21577387,0.21577387 0 0 1 -0.2157737,0.2157739 v 0 m -2.3977872,0 A 0.21577387,0.21577387 0 0 1 6.9551563,5.4193086 0.21037952,0.21037952 0 0 1 7.0198883,5.2628726 0.21577387,0.21577387 0 0 1 7.327366,5.2332036 0.22116821,0.22116821 0 0 1 7.346246,5.5433785 L 7.316578,5.5730475 A 0.21847105,0.21847105 0 0 1 7.162839,5.6350825 M 9.6388436,4.3269533 10.070392,3.5771392 A 0.09170389,0.09170389 0 0 0 10.043422,3.4584635 0.08630955,0.08630955 0 0 0 9.9382317,3.4854355 L 9.4878018,4.2487353 a 2.7187507,2.7187507 0 0 0 -2.2278651,0 l -0.4396393,-0.7633 a 0.09170389,0.09170389 0 0 0 -0.078218,-0.045852 0.09979541,0.09979541 0 0 0 -0.078218,0.045852 0.09170389,0.09170389 0 0 0 0,0.091703 L 7.0981069,4.3269529 A 2.5677091,2.5677091 0 0 0 5.771097,6.3795023 h 5.205544 A 2.5677091,2.5677091 0 0 0 9.6496323,4.3269533"
     class="cls-5"
     style="fill:#3ddc84;stroke-width:0.269718"
     inkscape:connector-curvature="0" />
  <path
     id="path18"
     d="m 11.764217,7.9789262 h -0.342542 a 0.04315477,0.04315477 0 0 0 -0.02967,0.045852 v 0 5.3943468 a 0.04315477,0.04315477 0 0 0 0.04046,0.04315 h 0.35333 a 0.74981419,0.74981419 0 0 0 0.747117,-0.749814 V 7.229112 a 0.74981419,0.74981419 0 0 1 -0.749815,0.7498142 z"
     style="fill:#073042;stroke-width:0.269718"
     inkscape:connector-curvature="0" />
</svg>
