<svg width="192" height="192" viewBox="0 0 192 192" fill="none" xmlns="http://www.w3.org/2000/svg">
<path d="M43.7559 18.7227C63.8929 6.28392 88.9332 2.0672 112.115 7.03427C132.946 11.3461 152.057 23.1085 165.304 39.5738C178.465 55.7538 185.804 76.4675 185.58 97.2447C185.59 116.68 179.042 136.041 167.248 151.576C155.828 166.519 140.178 178.652 122.018 184.38C110.523 188.015 97.6503 186.187 87.288 180.205C77.2142 174.361 70.1102 164.184 66.9802 153.151C66.0935 150.297 65.7089 146.693 68.2194 144.506C71.328 141.272 77.5881 142.836 78.603 147.243C80.6968 156.596 86.2411 165.674 95.0864 170.102C100.983 172.892 107.799 174.562 114.283 173.103C131.91 168.316 147.624 157.23 158.168 142.498C167.857 129.097 173.049 112.6 172.825 96.135C172.782 79.0462 166.864 62.0313 156.234 48.5568C144.729 33.7085 127.754 23.0663 109.209 19.304C91.262 15.5206 72.0331 18.0781 55.7526 26.4587C43.585 32.7573 32.9878 42.1208 25.5312 53.545C21.194 60.9534 17.9358 69.5242 18.9613 78.2324C20.0403 86.687 24.933 94.7506 32.4002 99.1469C35.1029 100.827 39.0128 101.979 39.5149 105.615C40.4657 109.588 37.0472 112.907 33.2762 113.435C20.4569 109.218 10.6075 97.9527 7.33855 85.0806C3.93076 72.8321 7.41333 59.8331 13.4597 48.969C20.286 36.1814 31.6204 26.4375 43.7559 18.7227Z" fill="url(#paint0_linear)"/>
<path d="M109.636 60.7208C118.343 53.4182 129.645 48.7893 141.161 49.212C144.323 49.3071 147.197 50.6916 149.932 52.1183C147.09 54.549 143.105 55.5001 140.841 58.6177C135.232 65.5611 136.535 75.305 131.846 82.7133C128 89.6038 119.069 94.1904 111.303 91.263C104.199 88.938 99.7014 81.1492 100.973 73.8783C101.475 68.3511 105.363 63.9653 109.636 60.7208Z" fill="url(#paint1_linear)"/>
<path d="M85.6963 88.5152C88.8691 85.9789 92.2875 83.5799 96.2401 82.3962C98.0455 83.0303 98.3339 85.2919 99.4022 86.6869C101.186 90.3541 104.797 92.4466 107.852 94.9407C105.406 98.2908 102.863 101.556 100.374 104.875C95.3001 99.5907 90.5249 94.0213 85.6963 88.5152Z" fill="url(#paint2_linear)"/>
<path d="M77.6736 94.6766C78.5495 94.1376 79.7674 92.2036 80.7822 93.5458C85.6001 98.8405 90.3326 104.22 95.0009 109.641C70.8473 129.721 46.8432 150.403 19.2604 165.822C16.4082 167.64 13.3102 169.447 9.7635 169.077C9.67804 165.42 12.1564 162.535 14.293 159.819C32.5925 135.576 55.4749 115.306 77.6736 94.6766Z" fill="url(#paint3_linear)"/>
<defs>
<linearGradient id="paint0_linear" x1="95.7924" y1="186.245" x2="95.7924" y2="5" gradientUnits="userSpaceOnUse">
<stop stop-color="#AC3E00"/>
<stop offset="1" stop-color="#FF620A"/>
</linearGradient>
<linearGradient id="paint1_linear" x1="125.345" y1="92.1614" x2="125.345" y2="49.1853" gradientUnits="userSpaceOnUse">
<stop stop-color="#AC3E00"/>
<stop offset="1" stop-color="#FF620A"/>
</linearGradient>
<linearGradient id="paint2_linear" x1="96.7743" y1="104.875" x2="96.7743" y2="82.3962" gradientUnits="userSpaceOnUse">
<stop stop-color="#AC3E00"/>
<stop offset="1" stop-color="#FF620A"/>
</linearGradient>
<linearGradient id="paint3_linear" x1="52.3811" y1="169.125" x2="52.3811" y2="93.0804" gradientUnits="userSpaceOnUse">
<stop stop-color="#AC3E00"/>
<stop offset="1" stop-color="#FF620A"/>
</linearGradient>
</defs>
</svg>
