<svg xmlns="http://www.w3.org/2000/svg" height="128" viewBox="0 0 128 128" width="128" enable-background="new"><title>Template icons dark</title><defs><linearGradient id="a"><stop offset="0" stop-color="#56aff6"/><stop offset="1" stop-color="#2196f3"/></linearGradient><clipPath id="c"><path d="M592-212L272 101.043V-116l-48 24v240l48 24 432-336z" fill="#1565c0" fill-rule="evenodd" enable-background="new"/></clipPath><filter id="b" x="-.024" width="1.048" y="-.024" height="1.048" color-interpolation-filters="sRGB"><feGaussianBlur stdDeviation="4.8"/></filter><filter id="d" x="-.054" width="1.108" y="-.068" height="1.135" color-interpolation-filters="sRGB"><feGaussianBlur stdDeviation="10.8"/></filter></defs><g fill-rule="evenodd"><path d="M152-216L-44.402-23.867-168-120l-48 24v240l48 24 123.598-96.133L152 264l112-48v-384zm0 135.111V128.89L17.143 24zm-320 31.846L-93.334 24-168 97.043z" transform="matrix(.24583 0 0 .24583 58.1 57.92)" opacity=".1" filter="url(#b)" enable-background="new"/><path d="M152-216L-44.402-23.867-168-120l-48 24v240l48 24 123.598-96.133L152 264l112-48v-384zm0 135.111V128.89L17.143 24zm-320 31.846L-93.334 24-168 97.043z" transform="matrix(.24583 0 0 .24583 58.1 57.92)" opacity=".2" filter="url(#b)" enable-background="new"/><path d="M95.467 3.836L47.184 51.07 16.8 27.436 5 33.336v59l11.8 5.9 30.384-23.632 48.283 47.232 27.533-11.8v-94.4zm0 33.215v51.57L62.314 62.836zM16.8 44.88l18.355 17.956L16.8 80.793z" opacity=".2" stroke-width=".246" enable-background="new"/><path d="M5 91.845v-59l11.8-5.9v70.8z" fill="#1976d2" stroke-width=".246" enable-background="new"/><path d="M95.467 3.345L5 91.845l11.8 5.9 106.2-82.6z" fill="#1565c0" stroke-width=".246" enable-background="new"/><path transform="matrix(.24583 0 0 .24583 -50.067 55.461)" d="M592 272L224-88l48-24 432 336z" clip-path="url(#c)" opacity=".2" filter="url(#d)" enable-background="new"/><path d="M95.467 3.345L5 91.845l.333.166L95.467 3.836l27.125 11.625.408-.317z" opacity=".2" fill="#fff" stroke-width=".246" enable-background="new"/><path d="M95.467 121.345L5 32.845l11.8-5.9 106.2 82.6z" fill="#1e88e5" stroke-width=".246" enable-background="new"/><path d="M16.8 26.945L5 32.845l.333.325L16.8 27.436l105.792 82.283.408-.175z" opacity=".2" fill="#fff" stroke-width=".246" enable-background="new"/><path d="M123 109.545v-94.4l-27.533-11.8v118z" fill="#2196f3" stroke-width=".246" enable-background="new"/><path d="M95.467 3.345v.491L123 15.636v-.491z" opacity=".2" fill="#fff" stroke-width=".246" enable-background="new"/></g></svg>