<svg xmlns="http://www.w3.org/2000/svg" xmlns:xlink="http://www.w3.org/1999/xlink" height="128" viewBox="0 0 128 128" width="128"><title>Template icons dark</title><defs><linearGradient id="a"><stop offset="0" stop-color="#4d77d3"/><stop offset=".453" stop-color="#767294"/><stop offset="1" stop-color="#a6659c"/></linearGradient><linearGradient id="b"><stop offset="0" stop-color="#0b1528"/><stop offset="1" stop-color="#473d49"/></linearGradient><linearGradient xlink:href="#b" id="c" x1="26.4" y1="60.613" x2="26.4" y2="-12.187" gradientUnits="userSpaceOnUse" gradientTransform="matrix(1.38972 0 0 1.37252 238.727 239.14)"/><linearGradient xlink:href="#a" id="d" x1="53.271" y1="55.429" x2="-10.45" y2="-7.238" gradientUnits="userSpaceOnUse" gradientTransform="matrix(1.5337 0 0 1.56089 235.667 235.662)"/></defs><g transform="translate(-208 -208)"><rect ry="2" y="220" x="215" height="104" width="114" style="isolation:auto;mix-blend-mode:normal;marker:none" color="#000" overflow="visible" fill-opacity=".077" stroke-width=".444" stroke-opacity=".471"/><rect style="isolation:auto;mix-blend-mode:normal;marker:none" width="112" height="102" x="216" y="221" ry="3" color="#000" overflow="visible" fill="url(#c)" stroke-width=".412" stroke-opacity=".471"/><rect style="isolation:auto;mix-blend-mode:normal;marker:none" width="111" height="101" x="216.5" y="221.5" ry="2" color="#000" overflow="visible" fill="none" stroke="url(#d)"/><rect style="isolation:auto;mix-blend-mode:normal;marker:none" width="31" height="6" x="246" y="254" ry="0" color="#000" overflow="visible" fill="#8affca" fill-opacity=".984" stroke-width="1.607"/><path style="line-height:10;-inkscape-font-specification:'Ubuntu Mono'" d="M232.446 254.293q1.283 0 2.138-.178.891-.214 1.39-.57.5-.393.713-.892.214-.534.214-1.14 0-.891-.428-1.497-.428-.642-1.176-1.105-.713-.5-1.64-.856-.926-.392-1.924-.748-.963-.356-1.925-.784-.927-.428-1.675-1.034-.713-.641-1.176-1.497-.464-.89-.464-2.174 0-2.281 1.355-3.707 1.354-1.425 3.92-1.817v-3.672h2.638v3.565q1.426.07 2.602.356 1.212.25 1.924.535l-.605 2.495q-.749-.285-1.89-.57-1.14-.321-2.887-.321-1.924 0-2.958.713-.998.712-.998 2.067 0 .748.285 1.247.321.5.891.891.57.392 1.32.713.783.32 1.746.677 1.211.464 2.352.998 1.14.5 1.996 1.212.855.713 1.354 1.71.535.999.535 2.389 0 2.103-1.39 3.564-1.39 1.461-4.277 1.818v4.099h-2.638v-3.992q-2.245-.071-3.635-.5-1.39-.427-2.067-.819l.784-2.46q.962.464 2.28.892 1.32.392 3.316.392z" font-weight="400" font-size="10.102" font-family="Ubuntu Mono" letter-spacing="0" word-spacing="0" fill="#8affca" fill-opacity=".984" stroke-width="3.528"/></g></svg>