<svg width="192" height="192" viewBox="0 0 192 192" fill="none" xmlns="http://www.w3.org/2000/svg">
<path d="M135.382 14.6231C134.408 12.4795 137.109 10.1193 138.931 11.5484C154.016 21.1948 164.265 38.1167 166.505 56.2836C168.4 51.1518 169.551 45.7602 171.572 40.6826C171.97 39.286 174.22 38.9287 174.828 40.4119C181.967 52.8516 185.861 67.1859 185.924 81.661C185.935 104.386 180.093 127.609 166.756 145.96C154.257 163.802 134.722 175.722 113.89 179.804C92.9523 183.896 70.696 181.038 51.4651 171.489C32.8519 162.005 17.0966 145.732 9.68481 125.498C5.88469 115.007 3.85378 103.758 4.23065 92.5525C4.19924 83.6314 6.72218 75.0352 9.22419 66.6013C10.9724 62.2166 8.08311 57.8643 8.08311 53.4146C6.40812 37.9976 17.1908 22.9595 31.3968 18.813C32.8728 17.936 35.2178 19.246 34.9875 21.0649C35.2178 25.0491 35.0398 29.0441 35.0608 33.0391C39.2378 32.1838 43.5508 32.3461 47.7069 31.5775C53.5484 24.6377 62.0803 20.1771 71.0729 20.3179C73.1143 20.188 76.8097 20.2096 76.7364 23.1869C75.543 30.8521 72.7269 38.2358 72.2558 46.0201C71.68 49.9826 74.8939 53.5229 78.5056 54.2266C81.8556 54.9303 85.4777 55.136 88.3356 57.3121C95.5799 62.0325 95.7684 74.3423 88.9742 79.5607C83.4468 83.3933 76.4852 83.6964 70.5076 86.4788C68.4871 87.3883 68.4348 89.9541 68.0788 91.8704C74.5694 90.9285 80.5889 88.2111 86.7025 85.9267C91.6751 84.0212 97.6109 85.3745 101.233 89.4128C106.059 94.5554 106.279 103.563 101.275 108.662C97.3387 112.441 92.7325 115.418 87.9169 117.843C95.1298 119.5 103.159 120.214 109.88 116.414C118.747 111.607 123.374 101.354 124.882 91.524C125.771 83.9129 126.054 76.107 124.798 68.5176C123.615 61.3288 119.689 55.1468 116.748 48.6617C116.109 47.6332 116.8 45.7277 118.182 45.9768C125.866 46.9728 133.633 49.0407 140.134 53.5878C140.993 40.4011 138.637 27.301 135.382 14.6231V14.6231ZM53.3181 47.6765C49.8844 45.5112 45.8225 43.9197 41.7712 45.0024C36.4112 45.6844 31.9307 48.9974 27.6909 52.1912C25.8588 48.7159 24.1525 45.1756 22.5403 41.592C20.3419 46.334 19.6091 51.8447 21.305 56.8899C21.8912 59.6615 23.7651 62.4114 22.7287 65.3021C21.797 68.4635 20.4466 71.4841 19.5777 74.6779C13.5268 95.3782 17.1699 118.969 29.5229 136.476C38.4945 149.251 51.7478 158.27 65.9432 163.726C85.3626 171.067 107.336 170.233 126.504 162.438C141.998 156.148 154.749 143.654 162.548 128.54C171.635 111.77 174.587 92.0653 172.912 73.0647C169.122 78.9219 164.191 83.9021 158.779 88.1353C157.397 89.5211 154.885 87.8321 155.073 86.0241C154.665 76.6267 155.084 67.1751 153.89 57.821C153.492 55.7315 153.513 53.3821 152.194 51.6174C152.707 61.7727 149.954 71.679 146.635 81.1305C145.788 81.1197 144.092 81.1089 143.244 81.098C140.941 77.4387 139.527 73.2813 137.58 69.427C138.062 78.2507 138.428 87.1934 136.805 95.9196C134.628 107.352 129.216 118.742 119.731 125.476C111.796 131.366 101.61 133.065 92.0625 131.766C80.0445 130.651 69.1885 123.841 60.7508 115.245C60.3635 111.802 64.6765 112.203 66.8226 111.391C76.4328 109.658 85.7394 105.663 93.0465 98.8644C90.042 97.2512 87.0899 99.9146 84.211 100.683C76.0559 104.169 67.2099 105.1 58.5 105.793C56.6262 106.216 55.4746 104.018 55.7259 102.361C55.7782 96.9048 55.3385 91.3399 56.4482 85.9592C57.8196 79.5065 63.1795 74.7212 69.2513 73.173C73.4493 71.4191 78.6103 71.4949 82.044 68.2253C75.6581 67.1751 68.8326 65.5078 64.6137 59.9646C58.5838 53.6636 58.7199 44.1038 60.9183 36.1246C57.5579 39.3293 55.0454 43.3134 53.3181 47.6765Z" fill="url(#paint0_linear)"/>
<defs>
<linearGradient id="paint0_linear" x1="95.0552" y1="181.617" x2="95.0552" y2="11.1122" gradientUnits="userSpaceOnUse">
<stop stop-color="#FD2E00"/>
<stop offset="1" stop-color="#FF9900"/>
</linearGradient>
</defs>
</svg>
