<?xml version="1.0" encoding="UTF-8" standalone="no"?>
<svg
   viewBox="0 0 22 22"
   version="1.1"
   id="svg6"
   sodipodi:docname="clear_all.svg"
   inkscape:version="1.1.2 (0a00cf5339, 2022-02-04, custom)"
   xmlns:inkscape="http://www.inkscape.org/namespaces/inkscape"
   xmlns:sodipodi="http://sodipodi.sourceforge.net/DTD/sodipodi-0.dtd"
   xmlns="http://www.w3.org/2000/svg"
   xmlns:svg="http://www.w3.org/2000/svg">
  <sodipodi:namedview
     id="namedview8"
     pagecolor="#ffffff"
     bordercolor="#666666"
     borderopacity="1.0"
     inkscape:pageshadow="2"
     inkscape:pageopacity="0.0"
     inkscape:pagecheckerboard="0"
     showgrid="false"
     inkscape:zoom="26.709352"
     inkscape:cx="9.4723376"
     inkscape:cy="11.00738"
     inkscape:window-width="1898"
     inkscape:window-height="1024"
     inkscape:window-x="10"
     inkscape:window-y="44"
     inkscape:window-maximized="0"
     inkscape:current-layer="svg6" />
  <defs
     id="defs3051">
    <linearGradient
       id="linearGradient1052"
       inkscape:swatch="solid">
      <stop
         style="stop-color:#00efd1;stop-opacity:1;"
         offset="0"
         id="stop1050" />
    </linearGradient>
    <style
       type="text/css"
       id="current-color-scheme">
      .ColorScheme-Text {
        color:#dedede;
      }
      </style>
  </defs>
  <path
     style="fill:#0082ba;fill-opacity:1;stroke:none"
     d="M 17.564453 2.7558594 L 14.298828 8.5742188 L 11.882812 7.1386719 L 10.861328 8.8574219 L 16.511719 12.216797 L 17.533203 10.496094 L 15.158203 9.0839844 L 18.435547 3.2441406 L 17.564453 2.7558594 z M 7 6 A 1 1 0 0 0 6 7 A 1 1 0 0 0 7 8 A 1 1 0 0 0 8 7 A 1 1 0 0 0 7 6 z M 3.5 7 A 0.5 0.5 0 0 0 3 7.5 A 0.5 0.5 0 0 0 3.5 8 A 0.5 0.5 0 0 0 4 7.5 A 0.5 0.5 0 0 0 3.5 7 z M 5 9 A 1 1 0 0 0 4 10 A 1 1 0 0 0 5 11 A 1 1 0 0 0 6 10 A 1 1 0 0 0 5 9 z M 10 10 C 8.8815125 11.564268 6.8355055 12.810894 3 13 L 3 14 C 5.1137135 17.371692 8 19 12 19 L 13 19 C 14.311249 17.412805 15.357513 15.967619 16 14 L 16 13 L 11 10 L 10 10 z M 10.529297 11.101562 L 14.857422 13.699219 C 14.284594 15.24586 13.385404 16.602833 12.273438 17.96875 C 8.9999995 18 6.052768 16.540538 4.3261719 13.830078 C 7.4443879 13.51946 9.3457156 12.545306 10.529297 11.101562 z "
     class="ColorScheme-Text"
     id="path4" />
  <g
     inkscape:groupmode="layer"
     id="layer1"
     inkscape:label="circles">
    <ellipse
       style="fill:#fa67cd;fill-opacity:1;stroke:none;stroke-width:0.14817;paint-order:stroke fill markers"
       id="path968"
       cx="6.9695129"
       cy="6.9660435"
       rx="1.0594709"
       ry="1.0818744" />
    <ellipse
       style="fill:#fa67cd;fill-opacity:1;stroke:none;stroke-width:0.144379;paint-order:stroke fill markers"
       id="path968-3"
       cx="5.0292029"
       cy="10.021807"
       rx="1.0323616"
       ry="1.0541918" />
    <ellipse
       style="fill:#fa67cd;fill-opacity:1;stroke:none;stroke-width:0.0946409;paint-order:stroke fill markers"
       id="path968-6"
       cx="3.3774889"
       cy="7.4865851"
       rx="0.67671859"
       ry="0.69102842" />
  </g>
</svg>
