<svg width="192" height="192" viewBox="0 0 192 192" fill="none" xmlns="http://www.w3.org/2000/svg">
<path d="M161.218 6.18116L161.211 6.18244L161.204 6.18382C150.025 8.37166 138.836 10.5262 127.643 12.6813C109.567 16.1618 91.4841 19.6437 73.4301 23.2694C70.5437 23.4428 68.2546 25.1076 66.7514 27.2777C65.2476 29.4486 64.4676 32.2042 64.6222 34.7443C64.6413 46.7354 64.6382 58.7292 64.6351 70.724C64.6304 89.1449 64.6257 107.568 64.7012 125.989C57.1247 121.765 47.8478 120.751 39.5232 123.228C27.0157 126.794 17.3206 138.338 16.2027 151.278C14.8811 162.566 20.108 174.228 29.3103 180.924C37.6093 187.109 48.9538 189.05 58.8326 185.767C68.8009 182.695 76.8223 174.527 80.0423 164.715C81.5043 161.332 81.8093 157.807 81.7733 154.347C81.7568 152.761 81.6679 151.168 81.5808 149.606C81.5725 149.457 81.5643 149.31 81.5561 149.162C81.4612 147.448 81.3766 145.771 81.3917 144.124L81.3917 144.115C81.3964 135.931 81.3958 127.749 81.3952 119.567C81.3943 106.2 81.3933 92.8366 81.4151 79.4764C86.0718 78.4815 90.7811 77.7506 95.5247 77.0144L95.5696 77.0075C100.584 76.2292 105.637 75.4441 110.641 74.3359L110.645 74.3352C113.911 73.6005 117.221 73.0847 120.568 72.5631C120.96 72.502 121.352 72.4408 121.745 72.3792C125.48 71.7937 129.251 71.1695 132.963 70.1966L132.984 70.1912L133.004 70.1849C134.999 69.5695 136.831 68.2013 138.01 66.4506C139.195 64.6905 139.76 62.4771 139.066 60.231L139.039 60.1441L138.997 60.0635C138.098 58.3408 136.695 56.6385 134.957 55.5073C133.217 54.3745 131.09 53.7885 128.828 54.4276C127.455 54.7003 126.087 54.9801 124.723 55.2593C119.108 56.4077 113.544 57.5458 107.886 58.1428L107.858 58.1457L107.83 58.1502C104.136 58.7502 100.462 59.4682 96.8065 60.1824C95.8743 60.3646 94.9434 60.5465 94.0137 60.7261C89.8038 61.5395 85.61 62.3086 81.3879 62.8584C81.4144 58.9273 81.4102 54.9992 81.4061 51.0757L81.4056 50.6115C81.4013 46.4256 81.3983 42.2448 81.4337 38.0626C83.5061 37.6713 85.5788 37.2802 87.6517 36.8891C111.796 32.3338 135.969 27.7731 160.045 22.7633C160.136 38.4452 160.122 54.1017 160.109 69.7605C160.097 83.2831 160.086 96.8074 160.142 110.351C151.005 106.136 139.644 106.94 131.469 113.015C122.034 119.615 117.581 132.25 120.77 143.262C123.417 153.313 132.118 161.455 142.374 163.435C151.506 165.358 161.435 162.327 167.962 155.712C174.583 149.174 177.184 139.524 176.51 130.566C176.463 109.106 176.475 87.6473 176.487 66.1878C176.498 48.7542 176.508 31.3198 176.486 13.8827C176.795 10.1849 174.015 7.38562 171.489 5.76967L171.429 5.73146L171.364 5.70207C169.563 4.88137 167.734 4.89942 166.032 5.15779C165.183 5.28668 164.342 5.47939 163.542 5.66818C163.452 5.68934 163.363 5.71043 163.275 5.7314C162.561 5.90032 161.884 6.06065 161.218 6.18116ZM143.463 124.497L143.476 124.492L143.488 124.486C146.913 122.951 150.885 123.448 154.105 125.334C157.325 127.22 159.674 130.421 159.954 134.146L159.958 134.207L159.97 134.266C160.704 137.97 159.272 141.694 156.641 144.363C154.008 147.033 150.27 148.55 146.526 147.946L146.495 147.941L146.463 147.938C139.599 147.271 134.407 139.981 136.029 133.325L136.033 133.308L136.037 133.291C136.843 129.395 139.756 126.038 143.463 124.497ZM43.5504 138.636L43.5582 138.633L43.5659 138.631C51.6964 135.819 61.7365 140.386 64.3226 148.565C64.8948 152.539 64.8189 156.65 64.4279 160.706C61.7154 168.58 52.3131 173.235 44.2689 170.815L44.2515 170.809L44.234 170.805C36.1026 168.676 30.5357 159.795 32.2539 151.597L32.2567 151.583L32.2592 151.57C33.3305 145.651 37.817 140.513 43.5504 138.636Z" fill="url(#paint0_linear)" stroke="url(#paint1_linear)" stroke-width="2"/>
<defs>
<linearGradient id="paint0_linear" x1="175.144" y1="7.14331" x2="-2.1217" y2="161.75" gradientUnits="userSpaceOnUse">
<stop stop-color="#FE7970"/>
<stop offset="1" stop-color="#DC3282"/>
</linearGradient>
<linearGradient id="paint1_linear" x1="175.144" y1="7.14331" x2="-2.1217" y2="161.75" gradientUnits="userSpaceOnUse">
<stop stop-color="#FE7970"/>
<stop offset="1" stop-color="#DC3282"/>
</linearGradient>
</defs>
</svg>
