<svg width="128" height="128" viewBox="0 0 128 128" fill="none" xmlns="http://www.w3.org/2000/svg">
<g clip-path="url(#clip0)">
<path d="M15.4274 12.3793C17.4265 11.9181 19.5069 11.7643 21.5792 11.7643C49.2175 11.771 76.864 11.7643 104.502 11.7643C108.2 11.7042 112.019 11.7242 115.505 12.8805C123.266 15.2533 128.808 21.8503 128.532 28.6811C128.516 52.7295 128.557 76.7778 128.516 100.826C128.613 109.542 119.048 117.175 108.516 117.114C79.0094 117.114 49.502 117.154 20.0027 117.095C9.64943 116.928 0.547712 109.368 0.547712 100.84C0.539585 76.5573 0.539585 52.2683 0.555838 27.9793C0.604597 20.8276 7.04081 14.1705 15.4274 12.3793ZM18.7674 19.8383C14.2003 20.5936 10.2102 24.0292 10.3158 27.9659C10.2914 52.2683 10.3158 76.5706 10.3077 100.873C10.1858 105.431 15.4274 109.288 20.8722 109.161C50.079 109.168 79.2939 109.194 108.5 109.134C114.205 109.168 119.178 104.87 118.91 100.185C118.927 76.3301 118.943 52.4755 118.902 28.621C119.187 23.9222 114.083 19.6914 108.419 19.6914C79.7408 19.6579 51.0541 19.6914 22.3675 19.6713C21.1648 19.6847 19.9539 19.6512 18.7674 19.8383L18.7674 19.8383Z" fill="url(#paint0_linear)"/>
<path d="M25.4648 45.4423C28.2297 44.4691 31.8274 45.1682 33.5513 46.8909C41.1547 53.6977 48.7165 60.5324 56.3033 67.3504C57.0111 68.1055 58.2353 68.8438 57.9605 69.8338C57.2027 70.8349 56.1534 71.7131 55.1707 72.6191C48.0253 79.0176 40.9299 85.4385 33.8095 91.8538C32.5936 92.9947 30.7364 93.9568 28.5629 93.9903C23.108 94.2476 19.8019 89.3145 23.6993 86.7305C29.6289 81.3667 35.6333 76.0421 41.5045 70.6559C42.6288 69.8673 42.2124 68.6872 41.2296 67.9432C35.3001 62.6019 29.3457 57.2716 23.4412 51.919C20.9345 49.9447 21.9004 46.5385 25.4648 45.4423V45.4423Z" fill="url(#paint1_linear)"/>
<path d="M66.9853 83.5002C68.1709 82.9124 69.5168 83.0528 70.7825 83C81.7335 83.044 92.6926 82.9737 103.644 83.0263C106.359 82.7895 108.947 85.2901 108.987 88.2909C109.212 91.4673 106.496 94.3804 103.588 93.9593C92.1238 93.9593 80.652 93.9856 69.1883 93.9505C66.4325 94.2488 63.869 91.3533 64.0052 88.3787C64.0213 86.2993 65.2228 84.2899 66.9853 83.5002V83.5002Z" fill="url(#paint2_linear)"/>
</g>
<defs>
<linearGradient id="paint0_linear" x1="64.5424" y1="117.127" x2="64.5424" y2="11.7458" gradientUnits="userSpaceOnUse">
<stop stop-color="#5558FF"/>
<stop offset="1" stop-color="#00C0FF"/>
</linearGradient>
<linearGradient id="paint1_linear" x1="40" y1="94" x2="40" y2="45" gradientUnits="userSpaceOnUse">
<stop stop-color="#5558FF"/>
<stop offset="1" stop-color="#00C0FF"/>
</linearGradient>
<linearGradient id="paint2_linear" x1="86.5" y1="94" x2="86.5" y2="83" gradientUnits="userSpaceOnUse">
<stop stop-color="#5558FF"/>
<stop offset="1" stop-color="#00C0FF"/>
</linearGradient>
<clipPath id="clip0">
<rect width="128" height="128" fill="white"/>
</clipPath>
</defs>
</svg>
