<?xml version="1.0" encoding="UTF-8" standalone="no"?>
<svg
   height="32"
   width="32"
   viewBox="0 0 31.999999 31.999998"
   version="1.1"
   id="svg4207"
   sodipodi:docname="900.svg"
   inkscape:version="1.1.2 (0a00cf5339, 2022-02-04, custom)"
   xmlns:inkscape="http://www.inkscape.org/namespaces/inkscape"
   xmlns:sodipodi="http://sodipodi.sourceforge.net/DTD/sodipodi-0.dtd"
   xmlns="http://www.w3.org/2000/svg"
   xmlns:svg="http://www.w3.org/2000/svg">
  <defs
     id="defs4211" />
  <sodipodi:namedview
     id="namedview4209"
     pagecolor="#ffffff"
     bordercolor="#666666"
     borderopacity="1.0"
     inkscape:pageshadow="2"
     inkscape:pageopacity="0.0"
     inkscape:pagecheckerboard="0"
     showgrid="false"
     inkscape:zoom="25.96875"
     inkscape:cx="8.433213"
     inkscape:cy="16.019254"
     inkscape:window-width="1920"
     inkscape:window-height="1046"
     inkscape:window-x="0"
     inkscape:window-y="34"
     inkscape:window-maximized="1"
     inkscape:current-layer="svg4207" />
  <path
     d="m 13,1045.4 c -0.554,0 -1,0.446 -1,1 0,0.554 0.446,1 1,1 l 2,0 c 0.554,0 1,-0.446 1,-1 0,-0.554 -0.446,-1 -1,-1 l -2,0 z m 1.834,-4 c -0.46167,0 -0.83398,0.446 -0.83398,1 0,0.554 0.37231,1 0.83398,1 l 3.332,0 c 0.46167,0 0.83398,-0.446 0.83398,-1 0,-0.554 -0.37231,-1 -0.83398,-1 l -3.332,0 z m 0.94336,-4 c -0.43089,0 -0.77734,0.446 -0.77734,1 0,0.554 0.34645,1 0.77734,1 l 5.4453,0 c 0.43089,0 0.77734,-0.446 0.77734,-1 0,-0.554 -0.34645,-1 -0.77734,-1 l -5.4453,0 z m -0.95703,-4 c -0.46893,0 -0.8457,0.446 -0.8457,1 0,0.554 0.37677,1 0.8457,1 l 9.334,0 c 0.46893,0 0.8457,-0.446 0.8457,-1 0,-0.554 -0.37677,-1 -0.8457,-1 l -9.334,0 z m -5.031,-4 c -0.43737,0 -0.78929,0.446 -0.78929,1 0,0.554 0.35192,1 0.78929,1 l 13.421,0 c 0.43737,0 0.78929,-0.446 0.78929,-1 0,-0.554 -0.35192,-1 -0.78929,-1 l -13.421,0 z m -4.8726,-4 c -0.50785,0 -0.91667,0.446 -0.91667,1 0,0.554 0.40882,1 0.91667,1 l 20.167,0 c 0.50785,0 0.91667,-0.446 0.91667,-1 0,-0.554 -0.40882,-1 -0.91667,-1 l -20.167,0 z"
     transform="translate(0 -1021.4)"
     id="path4205"
     style="fill:#4c566a;fill-opacity:1" />
</svg>
