<?xml version="1.0" encoding="UTF-8" standalone="no"?>
<svg
   height="32"
   width="32"
   viewBox="0 0 31.999999 31.999998"
   version="1.1"
   id="svg4402"
   sodipodi:docname="903.svg"
   inkscape:version="1.1.2 (0a00cf5339, 2022-02-04, custom)"
   xmlns:inkscape="http://www.inkscape.org/namespaces/inkscape"
   xmlns:sodipodi="http://sodipodi.sourceforge.net/DTD/sodipodi-0.dtd"
   xmlns="http://www.w3.org/2000/svg"
   xmlns:svg="http://www.w3.org/2000/svg">
  <defs
     id="defs4406" />
  <sodipodi:namedview
     id="namedview4404"
     pagecolor="#ffffff"
     bordercolor="#666666"
     borderopacity="1.0"
     inkscape:pageshadow="2"
     inkscape:pageopacity="0.0"
     inkscape:pagecheckerboard="0"
     showgrid="false"
     inkscape:zoom="25.96875"
     inkscape:cx="16.211793"
     inkscape:cy="16.019254"
     inkscape:window-width="1920"
     inkscape:window-height="1046"
     inkscape:window-x="0"
     inkscape:window-y="34"
     inkscape:window-maximized="1"
     inkscape:current-layer="svg4402" />
  <path
     d="m16 1025.4c-1.645 0-3 1.355-3 3 0 0.5444 0.15975 1.0499 0.41797 1.4922-1.7049 0.672-2.9717 1.9774-3.832 3.5449-1.151 2.097-1.7728 4.6416-2.3945 7.086-1.2638 0.3532-2.1914 1.4974-2.1914 2.8769v1c0 1.662 1.338 3 3 3h16c1.662 0 3-1.338 3-3v-1c0-1.3795-0.92765-2.5237-2.1914-2.8769-0.62191-2.4451-1.2438-4.9908-2.3945-7.0879-0.86015-1.5675-2.1268-2.8735-3.832-3.5449 0.25768-0.442 0.41797-0.9465 0.41797-1.4903 0-1.645-1.355-3-3-3zm0 2a1 1 0 0 1 1 1 1 1 0 0 1 -1 1 1 1 0 0 1 -1 -1 1 1 0 0 1 1 -1zm0 4h0.002c2.3853 0 3.6183 1.0995 4.6602 2.9981 0.87572 1.5959 1.4582 3.7735 2.0332 6.0019h-13.391c0.57491-2.2275 1.1592-4.4061 2.0352-6.0019 1.042-1.8987 2.2756-2.9947 4.6601-2.9981zm-8 11h16c0.554 0 1 0.446 1 1v1c0 0.554-0.446 1-1 1h-16c-0.554 0-1-0.446-1-1v-1c0-0.554 0.446-1 1-1z"
     transform="translate(0 -1020.4)"
     id="path4400"
     style="fill:#f1dc6e;fill-opacity:1" />
</svg>
