<?xml version="1.0" encoding="UTF-8" standalone="no"?>
<svg
   height="32"
   width="32"
   viewBox="0 0 31.999999 31.999998"
   version="1.1"
   id="svg1412"
   sodipodi:docname="null.svg"
   inkscape:version="1.1.2 (0a00cf5339, 2022-02-04, custom)"
   xmlns:inkscape="http://www.inkscape.org/namespaces/inkscape"
   xmlns:sodipodi="http://sodipodi.sourceforge.net/DTD/sodipodi-0.dtd"
   xmlns="http://www.w3.org/2000/svg"
   xmlns:svg="http://www.w3.org/2000/svg">
  <defs
     id="defs1416" />
  <sodipodi:namedview
     id="namedview1414"
     pagecolor="#ffffff"
     bordercolor="#666666"
     borderopacity="1.0"
     inkscape:pageshadow="2"
     inkscape:pageopacity="0.0"
     inkscape:pagecheckerboard="0"
     showgrid="false"
     inkscape:zoom="25.96875"
     inkscape:cx="2.7340554"
     inkscape:cy="16"
     inkscape:window-width="1580"
     inkscape:window-height="1037"
     inkscape:window-x="0"
     inkscape:window-y="0"
     inkscape:window-maximized="0"
     inkscape:current-layer="svg1412" />
  <path
     style="text-decoration-color:#000;isolation:auto;mix-blend-mode:normal;block-progression:tb;text-decoration-line:none;text-decoration-style:solid;text-indent:0;text-transform:none;fill:#4c566a;fill-opacity:1"
     d="m18.965 1028.4a1.0001 1.0001 0 0 0 -0.9277 0.7383l-3.9922 13.973a1.0001 1.0001 0 1 0 1.9219 0.5508l3.9922-13.973a1.0001 1.0001 0 0 0 -0.9942 -1.289zm6.0254 0a1.0001 1.0001 0 0 0 -0.9531 0.7246l-3.9961 13.986a1.0006 1.0006 0 1 0 1.9238 0.5508l0.9317-3.2617h4.205l0.9317 3.2617a1.0001 1.0001 0 1 0 1.9218 -0.5508l-3.996-13.986a1.0001 1.0001 0 0 0 -0.9688 -0.7246zm-14.008 0.016a1.0001 1.0001 0 0 0 -0.9844 1.0136v10.215l-6.1328-10.711a1.0001 1.0001 0 0 0 -1.8672 0.496v13.973a1.0001 1.0001 0 1 0 2 0v-10.215l6.1328 10.711a1.0001 1.0001 0 0 0 1.8672 -0.4961v-13.973a1.0001 1.0001 0 0 0 -1.0156 -1.0137zm14.016 4.6231 1.5313 5.3613h-3.0625l1.5312-5.3613z"
     fill-rule="evenodd"
     color="#000"
     solid-color="#4c566a"
     white-space="normal"
     transform="translate(0 -1020.4)"
     id="path1410" />
</svg>
