<?xml version="1.0" encoding="UTF-8" standalone="no"?>
<svg
   height="32"
   width="32"
   viewBox="0 0 31.999999 31.999998"
   version="1.1"
   id="svg1412"
   sodipodi:docname="762.svg"
   inkscape:version="1.1.2 (0a00cf5339, 2022-02-04, custom)"
   xmlns:inkscape="http://www.inkscape.org/namespaces/inkscape"
   xmlns:sodipodi="http://sodipodi.sourceforge.net/DTD/sodipodi-0.dtd"
   xmlns="http://www.w3.org/2000/svg"
   xmlns:svg="http://www.w3.org/2000/svg">
  <defs
     id="defs1416" />
  <sodipodi:namedview
     id="namedview1414"
     pagecolor="#ffffff"
     bordercolor="#666666"
     borderopacity="1.0"
     inkscape:pageshadow="2"
     inkscape:pageopacity="0.0"
     inkscape:pagecheckerboard="0"
     showgrid="false"
     inkscape:zoom="25.96875"
     inkscape:cx="2.7340554"
     inkscape:cy="16"
     inkscape:window-width="1580"
     inkscape:window-height="1037"
     inkscape:window-x="0"
     inkscape:window-y="0"
     inkscape:window-maximized="0"
     inkscape:current-layer="svg1412" />
  <path
     style="text-decoration-color:#000;isolation:auto;mix-blend-mode:normal;block-progression:tb;text-decoration-line:none;text-decoration-style:solid;text-indent:0;text-transform:none;fill:#cba882;fill-opacity:1"
     d="m20.945 1024.4a1 1.0001 0 0 0 -0.44528 0.1387c-1.7336 0.9921-2.8965 2.6016-3.4607 4.5801a1 1.0001 0 1 0 1.9218 0.5469c0.45055-1.5798 1.2502-2.6596 2.5311-3.3926a1 1.0001 0 0 0 -0.54684 -1.8731zm-11.002-2.0063a1.0009 1.0016 0 0 0 -0.43395 1.872c2.8366 1.6567 3.0706 3.2439 3.5107 5.3324a1.001 1.0017 0 1 0 1.9587 -0.4147c-0.44197-2.0974-1.1167-4.6939-4.4607-6.6468a1.0009 1.0016 0 0 0 -0.5747 -0.1429zm3.067 9.9986c-0.48414-0.0008-0.89917 0.331-0.98431 0.8086-0.82232 4.6146-1.7561 9.0625-4.8278 13.604-0.77196 1.1092 0.91352 2.2515 1.6542 1.1212 1.221-1.8052 2.1127-3.597 2.8045-5.3752 1.1557 0.7291 2.1405 0.9902 3.0662 0.7579 1.3238-0.3323 1.905-1.489 2.3514-2.3673 0.44643-0.8783 0.75435-1.5038 1.0995-1.7031 0.34519-0.1993 0.97592-0.1077 1.1581 0.2676 0.77074 2.7697 1.8949 5.5796 3.8162 8.4201 0.74067 1.1303 2.4262-0.012 1.6542-1.1212-3.0717-4.5413-4.0055-8.9892-4.8278-13.604-0.0851-0.4776-0.50017-0.8094-0.98431-0.8086-1.9931 0.01-3.987 0-5.9801 0zm0.78901 2.0001c1.4669 0.01 2.9352 0 4.4021 0 0.17125 0.9342 0.57418 2.8223 0.57418 2.8223s-0.62046-0.2712-1.5917 0.2852c-0.97124 0.5563-1.4785 1.7208-1.8925 2.5352-0.41391 0.8143-0.76336 1.2604-1.0566 1.334-0.22979 0.058-0.83011-0.039-1.8944-0.7793 0.65455-2.0896 1.0849-4.1571 1.4589-6.1974z"
     fill-rule="evenodd"
     color="#000"
     solid-color="#000000"
     white-space="normal"
     transform="translate(0 -1020.4)"
     id="path1410" />
</svg>
