<?xml version="1.0" encoding="UTF-8" standalone="no"?>
<svg
   height="32"
   width="32"
   viewBox="0 0 31.999999 31.999998"
   version="1.1"
   id="svg3947"
   sodipodi:docname="801.svg"
   inkscape:version="1.1.2 (0a00cf5339, 2022-02-04, custom)"
   xmlns:inkscape="http://www.inkscape.org/namespaces/inkscape"
   xmlns:sodipodi="http://sodipodi.sourceforge.net/DTD/sodipodi-0.dtd"
   xmlns="http://www.w3.org/2000/svg"
   xmlns:svg="http://www.w3.org/2000/svg">
  <defs
     id="defs3951" />
  <sodipodi:namedview
     id="namedview3949"
     pagecolor="#ffffff"
     bordercolor="#666666"
     borderopacity="1.0"
     inkscape:pageshadow="2"
     inkscape:pageopacity="0.0"
     inkscape:pagecheckerboard="0"
     showgrid="false"
     inkscape:zoom="25.96875"
     inkscape:cx="10.281588"
     inkscape:cy="16.019254"
     inkscape:window-width="1920"
     inkscape:window-height="1046"
     inkscape:window-x="0"
     inkscape:window-y="34"
     inkscape:window-maximized="1"
     inkscape:current-layer="svg3947" />
  <path
     d="m19 1028.4c-2.8956 0.001-5.5646 1.5668-6.9785 4.0938-0.33719-0.06-0.67893-0.092-1.0215-0.094-3.3137 0-6 2.6862-6 6 0 3.3137 2.6863 6 6 6h8c4.4183 0 8-3.5818 8-8 0-4.4183-3.5817-8-8-8zm0 2c3.3137 0 6 2.6863 6 6s-2.6863 6-6 6h-8c-2.2091 0-4-1.7909-4-4s1.7909-4 4-4c0.76723 0 1.5178 0.2241 2.1621 0.6406 0.6316-2.7152 3.0502-4.6378 5.8379-4.6406z"
     transform="translate(0 -1020.4)"
     id="path3945"
     style="fill:#cba882;fill-opacity:1" />
</svg>
