<?xml version="1.0" encoding="UTF-8" standalone="no"?>
<svg
   height="32"
   width="32"
   viewBox="0 0 31.999999 31.999998"
   version="1.1"
   id="svg4337"
   sodipodi:docname="902.svg"
   inkscape:version="1.1.2 (0a00cf5339, 2022-02-04, custom)"
   xmlns:inkscape="http://www.inkscape.org/namespaces/inkscape"
   xmlns:sodipodi="http://sodipodi.sourceforge.net/DTD/sodipodi-0.dtd"
   xmlns="http://www.w3.org/2000/svg"
   xmlns:svg="http://www.w3.org/2000/svg">
  <defs
     id="defs4341" />
  <sodipodi:namedview
     id="namedview4339"
     pagecolor="#ffffff"
     bordercolor="#666666"
     borderopacity="1.0"
     inkscape:pageshadow="2"
     inkscape:pageopacity="0.0"
     inkscape:pagecheckerboard="0"
     showgrid="false"
     inkscape:zoom="25.96875"
     inkscape:cx="17.367028"
     inkscape:cy="16.019254"
     inkscape:window-width="1920"
     inkscape:window-height="1046"
     inkscape:window-x="0"
     inkscape:window-y="34"
     inkscape:window-maximized="1"
     inkscape:current-layer="svg4337" />
  <path
     d="m16.959 1025.5c-4.1082 1.9035-6.78 5.9409-6.9434 10.441a6 6 0 0 0 -0.0156 0.4237 6 6 0 0 0 0.23828 1.6563c-1.8889-0.4463-3.6417-1.343-5.1074-2.6153 1.9035 4.1082 5.941 6.78 10.441 6.9434a6 6 0 0 0 0.42773 0.016 6 6 0 0 0 1.6562 -0.2383c-0.44623 1.8889-1.343 3.6417-2.6152 5.1075 4.1082-1.9035 6.78-5.941 6.9434-10.442a6 6 0 0 0 0.0156 -0.4237 6 6 0 0 0 -0.23828 -1.6562c1.8889 0.4462 3.6417 1.3429 5.1074 2.6152-1.9035-4.1082-5.941-6.78-10.441-6.9434a6 6 0 0 0 -0.004 0 6 6 0 0 0 -0.42373 -0.016 6 6 0 0 0 -1.6562 0.2383c0.44623-1.8889 1.343-3.6417 2.6152-5.1074zm-0.95898 6.8691a4 4 0 0 1 4 4 4 4 0 0 1 -4 4 4 4 0 0 1 -4 -4 4 4 0 0 1 4 -4z"
     transform="translate(0 -1020.4)"
     id="path4335"
     style="fill:#cba882;fill-opacity:1" />
</svg>
