<?xml version="1.0" encoding="UTF-8" standalone="no"?>
<svg
   viewBox="0 0 22 22"
   version="1.1"
   id="svg8"
   sodipodi:docname="volume-high.svg"
   inkscape:version="1.1.2 (0a00cf5339, 2022-02-04, custom)"
   xmlns:inkscape="http://www.inkscape.org/namespaces/inkscape"
   xmlns:sodipodi="http://sodipodi.sourceforge.net/DTD/sodipodi-0.dtd"
   xmlns:xlink="http://www.w3.org/1999/xlink"
   xmlns="http://www.w3.org/2000/svg"
   xmlns:svg="http://www.w3.org/2000/svg">
  <sodipodi:namedview
     id="namedview10"
     pagecolor="#ffffff"
     bordercolor="#666666"
     borderopacity="1.0"
     inkscape:pageshadow="2"
     inkscape:pageopacity="0.0"
     inkscape:pagecheckerboard="0"
     showgrid="false"
     inkscape:zoom="18.886364"
     inkscape:cx="0"
     inkscape:cy="11.013237"
     inkscape:window-width="1110"
     inkscape:window-height="1024"
     inkscape:window-x="10"
     inkscape:window-y="44"
     inkscape:window-maximized="0"
     inkscape:current-layer="svg8" />
  <defs
     id="defs3051">
    <linearGradient
       id="linearGradient1681"
       inkscape:swatch="solid">
      <stop
         style="stop-color:#00acea;stop-opacity:1;"
         offset="0"
         id="stop1679" />
    </linearGradient>
    <linearGradient
       id="linearGradient886"
       inkscape:swatch="solid">
      <stop
         style="stop-color:#7ec7a2;stop-opacity:1;"
         offset="0"
         id="stop884" />
    </linearGradient>
    <style
       type="text/css"
       id="current-color-scheme">
      .ColorScheme-Text {
        color:#dedede;
      }
      </style>
    <linearGradient
       inkscape:collect="always"
       xlink:href="#linearGradient886"
       id="linearGradient888"
       x1="13.619141"
       y1="10.995117"
       x2="19"
       y2="10.995117"
       gradientUnits="userSpaceOnUse" />
  </defs>
  <path
     style="fill:#7ec7a2;fill-opacity:1;stroke:none"
     d="M 10.988281 3 L 6 7.9902344 L 6 8 L 6 9 L 6 13 L 6 14 L 6 14.009766 L 10.988281 19 L 12 19 L 12 18.597656 L 12 3.4023438 L 12 3 L 10.988281 3 z M 14.324219 7.28125 L 13.785156 8.1425781 A 4 4 0 0 1 15 11 A 4 4 0 0 1 13.789062 13.861328 L 14.328125 14.724609 A 5 5 0 0 0 16 11 A 5 5 0 0 0 14.324219 7.28125 z M 3 8 L 3 9 L 3 13 L 3 14 L 5 14 L 5 13 L 5 9 L 5 8 L 3 8 z "
     class="ColorScheme-Text"
     id="path4" />
  <path
     style="fill:url(#linearGradient888);fill-opacity:1;stroke:none"
     d="M 13.865234 3.5371094 L 13.621094 4.5136719 A 7 7 0 0 1 18 11 A 7 7 0 0 1 13.619141 17.478516 L 13.863281 18.453125 A 8 8 0 0 0 19 11 A 8 8 0 0 0 13.865234 3.5371094 z "
     class="ColorScheme-Text"
     id="path6" />
  <rect
     style="fill:#e06c75;fill-opacity:1;stroke-width:0.133;paint-order:stroke fill markers"
     id="rect912"
     width="2"
     height="6"
     x="3"
     y="8"
     ry="0"
     rx="0" />
</svg>
