<?xml version="1.0" encoding="UTF-8" standalone="no"?>
<svg
   version="1.1"
   width="240"
   height="240"
   viewBox="0 0 240 240"
   id="svg4"
   sodipodi:docname="power.svg"
   inkscape:version="1.1.2 (0a00cf5339, 2022-02-04, custom)"
   xmlns:inkscape="http://www.inkscape.org/namespaces/inkscape"
   xmlns:sodipodi="http://sodipodi.sourceforge.net/DTD/sodipodi-0.dtd"
   xmlns="http://www.w3.org/2000/svg"
   xmlns:svg="http://www.w3.org/2000/svg"
   xmlns:rdf="http://www.w3.org/1999/02/22-rdf-syntax-ns#"
   xmlns:cc="http://creativecommons.org/ns#"
   xmlns:dc="http://purl.org/dc/elements/1.1/">
  <metadata
     id="metadata10">
    <rdf:RDF>
      <cc:Work
         rdf:about="">
        <dc:format>image/svg+xml</dc:format>
        <dc:type
           rdf:resource="http://purl.org/dc/dcmitype/StillImage" />
      </cc:Work>
    </rdf:RDF>
  </metadata>
  <defs
     id="defs8" />
  <sodipodi:namedview
     pagecolor="#ffffff"
     bordercolor="#666666"
     borderopacity="1"
     objecttolerance="10"
     gridtolerance="10"
     guidetolerance="10"
     inkscape:pageopacity="0"
     inkscape:pageshadow="2"
     inkscape:window-width="1898"
     inkscape:window-height="1024"
     id="namedview6"
     showgrid="false"
     inkscape:pagecheckerboard="true"
     inkscape:zoom="1.3906433"
     inkscape:cx="40.269133"
     inkscape:cy="69.032799"
     inkscape:window-x="10"
     inkscape:window-y="44"
     inkscape:window-maximized="0"
     inkscape:current-layer="svg4" />
  <path
     d="m 173.64706,48.70588 -17.05882,17.05883 c 20.35293,12.35294 33.99999,34.58823 33.99999,60.11764 0,38.98481 -31.60342,70.58824 -70.58823,70.58824 -38.984806,0 -70.588233,-31.60343 -70.58823,-70.58824 0,-25.52941 13.647059,-47.7647 33.882353,-60.23529 L 66.352946,48.70588 C 41.882358,65.64706 25.882358,93.88235 25.882358,125.88235 25.882356,177.86209 68.02026,220 120,220 c 51.97974,0 94.11764,-42.13791 94.11764,-94.11765 0,-32 -16,-60.23529 -40.47058,-77.17647"
     id="path2"
     inkscape:connector-curvature="0"
     style="fill:#cba882;fill-opacity:1;stroke-width:11.7647"
     sodipodi:nodetypes="ccsssccsssc" />
  <rect
     style="fill:#92a0bd;fill-opacity:1;stroke-width:0.133;paint-order:stroke fill markers"
     id="rect882"
     width="23.529409"
     height="117.64706"
     x="108.81863"
     y="2.739255"
     ry="11.764705"
     rx="0" />
</svg>
